<svg width="28" height="32" viewBox="0 0 28 32" fill="none" xmlns="http://www.w3.org/2000/svg">
<g clip-path="url(#clip0_4_205)">
<path d="M14.0062 8.8125C10.0312 8.8125 6.825 12.0187 6.825 15.9937C6.825 19.9687 10.0312 23.175 14.0062 23.175C17.9812 23.175 21.1875 19.9687 21.1875 15.9937C21.1875 12.0187 17.9812 8.8125 14.0062 8.8125ZM14.0062 20.6625C11.4375 20.6625 9.3375 18.5687 9.3375 15.9937C9.3375 13.4187 11.4312 11.325 14.0062 11.325C16.5812 11.325 18.675 13.4187 18.675 15.9937C18.675 18.5687 16.575 20.6625 14.0062 20.6625ZM23.1562 8.51875C23.1562 9.45 22.4063 10.1937 21.4813 10.1937C20.55 10.1937 19.8062 9.44375 19.8062 8.51875C19.8062 7.59375 20.5563 6.84375 21.4813 6.84375C22.4063 6.84375 23.1562 7.59375 23.1562 8.51875ZM27.9125 10.2187C27.8063 7.975 27.2937 5.9875 25.65 4.35C24.0125 2.7125 22.025 2.2 19.7812 2.0875C17.4688 1.95625 10.5375 1.95625 8.225 2.0875C5.9875 2.19375 4 2.70625 2.35625 4.34375C0.712499 5.98125 0.206249 7.96875 0.0937492 10.2125C-0.0375008 12.525 -0.0375008 19.4562 0.0937492 21.7687C0.199999 24.0125 0.712499 26 2.35625 27.6375C4 29.275 5.98125 29.7875 8.225 29.9C10.5375 30.0312 17.4688 30.0312 19.7812 29.9C22.025 29.7937 24.0125 29.2812 25.65 27.6375C27.2875 26 27.8 24.0125 27.9125 21.7687C28.0438 19.4562 28.0438 12.5312 27.9125 10.2187ZM24.925 24.25C24.4375 25.475 23.4938 26.4187 22.2625 26.9125C20.4188 27.6437 16.0437 27.475 14.0062 27.475C11.9687 27.475 7.5875 27.6375 5.75 26.9125C4.525 26.425 3.58125 25.4812 3.0875 24.25C2.35625 22.4062 2.525 18.0312 2.525 15.9937C2.525 13.9562 2.3625 9.575 3.0875 7.7375C3.575 6.5125 4.51875 5.56875 5.75 5.075C7.59375 4.34375 11.9687 4.5125 14.0062 4.5125C16.0437 4.5125 20.425 4.35 22.2625 5.075C23.4875 5.5625 24.4312 6.50625 24.925 7.7375C25.6562 9.58125 25.4875 13.9562 25.4875 15.9937C25.4875 18.0312 25.6562 22.4125 24.925 24.25Z" fill="#8FB292"/>
</g>
<defs>
<clipPath id="clip0_4_205">
<rect width="28" height="32" fill="white"/>
</clipPath>
</defs>
</svg>
