<svg width="256" height="256" viewBox="0 0 256 256" fill="none" xmlns="http://www.w3.org/2000/svg">
<rect width="256" height="256" rx="128" fill="#154723"/>
<path d="M127.688 126.688H163.938V174.062C159.146 175.646 154.167 176.917 149 177.875C143.833 178.792 137.979 179.25 131.438 179.25C122.354 179.25 114.646 177.458 108.312 173.875C101.979 170.292 97.1667 165 93.875 158C90.5833 151 88.9375 142.396 88.9375 132.188C88.9375 122.604 90.7708 114.312 94.4375 107.312C98.1458 100.312 103.542 94.8958 110.625 91.0625C117.75 87.2292 126.438 85.3125 136.688 85.3125C141.521 85.3125 146.292 85.8333 151 86.875C155.708 87.9167 159.979 89.2708 163.812 90.9375L157.375 106.438C154.583 105.021 151.396 103.833 147.812 102.875C144.229 101.917 140.479 101.438 136.562 101.438C130.938 101.438 126.042 102.729 121.875 105.312C117.75 107.896 114.542 111.521 112.25 116.188C110 120.812 108.875 126.271 108.875 132.562C108.875 138.521 109.688 143.812 111.312 148.438C112.938 153.021 115.5 156.625 119 159.25C122.5 161.833 127.062 163.125 132.688 163.125C135.438 163.125 137.75 163 139.625 162.75C141.542 162.458 143.333 162.167 145 161.875V142.812H127.688V126.688Z" fill="white"/>
</svg>
